# This file uses centimeters as units for non-parametric coordinates.

mtllib water.mtl
g default
v -3.516234 3.730052 -0.093060
v -3.476511 3.728324 5.600956
v -1.948612 3.728400 5.396338
v -0.527926 3.728588 4.817543
v 0.689413 3.728876 3.904168
v 1.620240 3.729244 2.718256
v 2.200819 3.729667 1.340828
v 2.391579 3.730117 -0.134274
v 2.180256 3.730562 -1.606572
v 1.580517 3.730972 -2.975765
v 0.633234 3.731320 -4.148576
v -0.596729 3.731581 -5.044877
v -2.025354 3.731738 -5.603794
v -3.555957 3.731780 -5.787075
vt 0.818638 0.465499
vt 0.819707 0.312300
vt 0.860815 0.317805
vt 0.899039 0.333378
vt 0.931792 0.357952
vt 0.956836 0.389860
vt 0.972457 0.426920
vt 0.977589 0.466608
vt 0.971904 0.506220
vt 0.955767 0.543059
vt 0.930281 0.574613
vt 0.897188 0.598729
vt 0.858751 0.613766
vt 0.817569 0.618698
vn 0.000000 1.000000 0.000300
vn 0.000000 1.000000 0.000300
vn 0.000000 1.000000 0.000300
vn 0.000000 1.000000 0.000300
vn 0.000000 1.000000 0.000300
vn 0.000000 1.000000 0.000300
vn 0.000000 1.000000 0.000300
vn 0.000000 1.000000 0.000300
vn 0.000000 1.000000 0.000300
vn 0.000000 1.000000 0.000300
vn 0.000000 1.000000 0.000300
vn 0.000000 1.000000 0.000300
vn 0.000000 1.000000 0.000300
vn 0.000000 1.000000 0.000300
vn 0.000000 1.000000 0.000300
vn 0.000000 1.000000 0.000300
vn 0.000000 1.000000 0.000300
vn 0.000000 1.000000 0.000300
vn 0.000000 1.000000 0.000300
vn 0.000000 1.000000 0.000300
vn 0.000000 1.000000 0.000300
vn 0.000000 1.000000 0.000300
vn 0.000000 1.000000 0.000300
vn 0.000000 1.000000 0.000300
vn 0.000000 1.000000 0.000300
vn 0.000000 1.000000 0.000300
vn 0.000000 1.000000 0.000300
vn 0.000000 1.000000 0.000300
vn 0.000000 1.000000 0.000300
vn 0.000000 1.000000 0.000300
vn 0.000000 1.000000 0.000300
vn 0.000000 1.000000 0.000300
vn 0.000000 1.000000 0.000300
vn 0.000000 1.000000 0.000300
vn 0.000000 1.000000 0.000300
vn 0.000000 1.000000 0.000300
s off
g polySurface3329 segundo_andar:Mesh
usemtl initialShadingGroup
f 1/1/1 2/2/2 3/3/3
f 1/1/4 3/3/5 4/4/6
f 1/1/7 4/4/8 5/5/9
f 1/1/10 5/5/11 6/6/12
f 1/1/13 6/6/14 7/7/15
f 1/1/16 7/7/17 8/8/18
f 1/1/19 8/8/20 9/9/21
f 1/1/22 9/9/23 10/10/24
f 1/1/25 10/10/26 11/11/27
f 1/1/28 11/11/29 12/12/30
f 1/1/31 12/12/32 13/13/33
f 1/1/34 13/13/35 14/14/36
